# xmcd CD database file
#
# Track frame offsets:
#	182
#	22780
#	37182
#	53762
#	68847
#	83225
#	98860
#	109707
#	120302
#	135582
#	154007
#	166785
#	183175
#	201940
#	214165
#	226710
#
# Disc length: 3183 seconds
#
# Revision: 1
# Processed by: cddbd v1.5.1PL2 Copyright (c) Steve Scherf et al.
# Submitted via: CDex 1.51
#
DISCID=c60c6d10
DTITLE=The Gino Marinello Orchestra - Electric Melodies, guitar masterpieces
DYEAR=1989
DGENRE=Electronic
TTITLE0=Private Investigations
TTITLE1=Samba pa ti
TTITLE2=Apache
TTITLE3=Telstar
TTITLE4=Ghostriders in the sky
TTITLE5=Albatross
TTITLE6=FBI
TTITLE7=Rebel Rouser
TTITLE8=Theme from Deerhunter
TTITLE9=Guitar man
TTITLE10=Red river rock
TTITLE11=Bilitis
TTITLE12=Europe
TTITLE13=Goldfinger
TTITLE14=Dance on
TTITLE15=Reveille rock
EXTD=YEAR: 1989
EXTT0=
EXTT1=
EXTT2=
EXTT3=
EXTT4=
EXTT5=
EXTT6=
EXTT7=
EXTT8=
EXTT9=
EXTT10=
EXTT11=
EXTT12=
EXTT13=
EXTT14=
EXTT15=
PLAYORDER=
